<svg xmlns="http://www.w3.org/2000/svg" xmlns:xlink="http://www.w3.org/1999/xlink" version="1.1" width="895.662" height="482.716" viewBox="0 0 395.662 282.716">
<defs>
<clipPath id="clip_0">
<path transform="matrix(1,0,0,-1,0,282.716)" d="M0 282.716H395.662V0H0Z"/>
</clipPath>
</defs>
<g id="layer_1" data-name="Layer 1">
<g clip-path="url(#clip_0)">
<path transform="matrix(1,0,0,-1,367.7373,199.0417)" d="M0 0C0-8.214-6.724-14.941-14.941-14.941H-324.875C-333.089-14.941-339.813-8.214-339.813 0V115.387C-339.813 123.593-333.089 130.309-324.875 130.309H-14.941C-6.724 130.309 0 123.593 0 115.387Z" fill="#ed1a3a"/>
<path transform="matrix(1,0,0,-1,83.7231,176.3996)" d="M0 0C.464-.004 .937-.012 1.42-.012 2.103-.012 2.743 0 3.406 .031 16.261 .933 26.629 10.891 28.139 23.562 28.248 24.717 28.311 25.911 28.311 27.151V70.65L16.132 70.514V27.815C16.132 27.089 16.12 26.375 16.089 25.7 15.519 18.137 9.209 12.179 1.51 12.179-6.096 12.179-12.332 17.989-13.045 25.407-13.081 25.981-13.092 26.558-13.092 27.166V70.514H-25.299V26.687C-25.299 25.751-25.26 24.85-25.17 23.944-23.804 10.961-13.174 .729 0 0" fill="#ffffff"/>
<path transform="matrix(1,0,0,-1,173.5571,176.404)" d="M0 0-41.474 41.657V.012H-53.684V70.518L-12.234 29.294V70.538H0Z" fill="#ffffff"/>
<path transform="matrix(1,0,0,-1,0,282.716)" d="M193.728 106.316H181.52899V176.81H193.728Z" fill="#ffffff"/>
<path transform="matrix(1,0,0,-1,0,282.716)" d="M273.018 106.312H260.83903V176.811H273.018Z" fill="#ffffff"/>
<path transform="matrix(1,0,0,-1,232.2007,164.1232)" d="M0 0H-18.228V16.771H.573C4.948 16.479 8.397 12.85 8.397 8.405 8.397 3.754 4.64 0 0 0M-18.228 29.083V45.926H0C4.64 45.926 8.397 42.164 8.397 37.528 8.397 32.892 4.659 29.083 .023 29.083ZM12.662 22.957C17.54 26.5 20.717 32.248 20.717 38.726 20.717 49.488 11.976 58.218 1.217 58.218H-11.711V58.304L-30.431 58.226V-12.289H-20.772 1.217C11.976-12.289 20.717-3.57 20.717 7.191 20.717 13.686 17.54 19.418 12.662 22.957" fill="#ffffff"/>
<path transform="matrix(1,0,0,-1,316.3101,164.21302)" d="M0 0C-12.757 0-23.059 10.317-23.059 23.051-23.059 35.791-12.757 46.124 0 46.124 4.315 46.124 8.37 44.938 11.827 42.866L20.639 51.666C14.824 55.853 7.703 58.343 0 58.343-19.488 58.343-35.276 42.546-35.276 23.051-35.276 3.582-19.488-12.218 0-12.218 7.723-12.218 14.844-9.717 20.654-5.514L11.851 3.277C8.386 1.198 4.323 0 0 0" fill="#ffffff"/>
</g>
</g>
</svg>
