<svg width="585" height="105" viewBox="0 0 585 115" fill="white" xmlns="http://www.w3.org/2000/svg">
<path  d="M14.9725 0.5H59.0975V15.125C59.0975 15.3333 58.9933 15.4375 58.785 15.4375H32.5975V34.875H56.0975V35C56.0975 35.5833 55.9933 38.75 55.785 44.5C55.7017 44.5 55.66 44.5625 55.66 44.6875H56.7225V49.1875H36.3475V67.5625H30.91V69.375H36.3475V74.9375H59.41V77.0625H57.5975V88.0625H30.035V90H16.91V57.9375H14.9725V46.625H0.660004V44.6875H14.9725V0.5ZM15.0975 44.6875V46.625H22.4725V44.6875H15.0975ZM37.7225 70.4375H38.785V71.9375H38.91C38.91 71.6458 39.3683 71.1458 40.285 70.4375H41.3475L39.8475 72.0625L41.4725 74.5H40.41C39.6183 73.375 39.1808 72.8125 39.0975 72.8125C38.8892 72.8542 38.785 72.9583 38.785 73.125V74.5H37.7225V70.4375ZM42.9725 70.4375H45.0975C45.7642 70.4375 46.2225 70.8333 46.4725 71.625C46.4725 71.75 46.2642 72.1042 45.8475 72.6875C46.1392 72.6875 46.3475 73.2917 46.4725 74.5H45.7225C45.5142 74.5 45.3475 74 45.2225 73H44.035V74.5H42.9725V70.4375ZM49.785 70.4375H50.3475C51.2642 70.4375 51.8267 71.0417 52.035 72.25V72.8125C52.035 73.1458 51.8892 73.5 51.5975 73.875V74.0625C51.8892 74.0625 52.035 74.1458 52.035 74.3125C52.035 74.4792 51.8892 74.6458 51.5975 74.8125C51.4308 74.8125 51.2642 74.6458 51.0975 74.3125L50.3475 74.5H49.785C48.785 74.5 48.2225 73.75 48.0975 72.25C48.3892 71.0417 48.9517 70.4375 49.785 70.4375ZM49.16 72.25V72.6875C49.16 73.3958 49.5142 73.75 50.2225 73.75H50.3475V73.5625H50.0975V73.4375C50.0975 73.2708 50.2433 73.125 50.535 73L50.9725 73.25C50.9725 73.2083 51.0142 72.9167 51.0975 72.375C51.0558 71.5833 50.66 71.1875 49.91 71.1875C49.41 71.3125 49.16 71.6667 49.16 72.25ZM44.035 71.3125V72.25H45.0975C45.3058 72.25 45.41 72.1458 45.41 71.9375V71.625C45.41 71.4167 45.3058 71.3125 45.0975 71.3125H44.035ZM58.535 77.9375H59.41V78.125C59.41 79.9167 59.2642 80.8125 58.9725 80.8125C58.6808 80.8125 58.535 80.1667 58.535 78.875V77.9375ZM58.535 80.9375H59.41V81.875H58.535V80.9375ZM73.87 0.625H104.495C114.745 0.625 121.37 4.22917 124.37 11.4375C125.662 15.1458 126.308 19.3958 126.308 24.1875V27.9375C126.308 36.6042 124.412 43.2083 120.62 47.75H114.12V51.0625H124.058V72.4375H118.183V75.75H127.058V88.375H108.433V68.1875H101.245V55.125H88.745V77.25H91.4325V90H74.1825C73.9742 90 73.87 89.8958 73.87 89.6875V53.8125H81.5575V51.25H73.87V0.625ZM91.4325 15.1875V40.4375H95.6825C102.058 40.4375 105.745 39.8333 106.745 38.625C107.787 37.9583 108.599 36.6042 109.183 34.5625H115.808V31.375H109.808V31.6875C109.474 33.6042 109.224 34.5625 109.058 34.5625H100.495V31.375H109.495C109.703 31.375 109.808 31.2917 109.808 31.125C109.891 28.5417 109.933 27.0833 109.933 26.75C109.933 21.1667 108.974 17.75 107.058 16.5C105.558 15.625 102.808 15.1875 98.8075 15.1875H91.4325ZM89.495 55.875H90.245C90.6617 56.0833 90.87 56.3958 90.87 56.8125C91.0367 56.8125 91.2242 56.5 91.4325 55.875H92.37V56.0625L91.4325 57.375C91.4325 57.4583 91.7867 58.0208 92.495 59.0625V59.1875H91.745C91.6617 59.1875 91.37 58.8333 90.87 58.125C90.5783 58.7917 90.3283 59.1458 90.12 59.1875H89.37C90.0367 58.1458 90.37 57.5417 90.37 57.375L89.495 55.875ZM89.62 60.375H92.37V60.875L90.6825 62.9375H92.37V63.6875H89.495V63.125L91.12 61H89.62V60.375ZM140.205 0.625H170.83C181.08 0.625 187.705 4.22917 190.705 11.4375C191.997 15.1458 192.643 19.3958 192.643 24.1875V27.9375C192.643 36.6042 190.747 43.2083 186.955 47.75H180.455V51.0625H190.393V72.4375H184.518V75.75H193.393V88.375H174.768V68.1875H167.58V55.125H155.08V77.25H157.768V90H140.518C140.309 90 140.205 89.8958 140.205 89.6875V53.8125H147.893V51.25H140.205V0.625ZM157.768 15.1875V40.4375H162.018C168.393 40.4375 172.08 39.8333 173.08 38.625C174.122 37.9583 174.934 36.6042 175.518 34.5625H182.143V31.375H176.143V31.6875C175.809 33.6042 175.559 34.5625 175.393 34.5625H166.83V31.375H175.83C176.038 31.375 176.143 31.2917 176.143 31.125C176.226 28.5417 176.268 27.0833 176.268 26.75C176.268 21.1667 175.309 17.75 173.393 16.5C171.893 15.625 169.143 15.1875 165.143 15.1875H157.768ZM155.83 55.875H156.58C156.997 56.0833 157.205 56.3958 157.205 56.8125C157.372 56.8125 157.559 56.5 157.768 55.875H158.705V56.0625L157.768 57.375C157.768 57.4583 158.122 58.0208 158.83 59.0625V59.1875H158.08C157.997 59.1875 157.705 58.8333 157.205 58.125C156.913 58.7917 156.663 59.1458 156.455 59.1875H155.705C156.372 58.1458 156.705 57.5417 156.705 57.375L155.83 55.875ZM155.955 60.375H158.705V60.875L157.018 62.9375H158.705V63.6875H155.83V63.125L157.455 61H155.955V60.375ZM238.665 0.4375C251.498 0.4375 259.936 4.9375 263.978 13.9375C266.269 18.3125 267.415 26.75 267.415 39.25V39.6875H260.79V42.6875H267.415V75H263.04V86.6875H254.353V90H223.978V86.6875H220.228V75H212.415V65.875H217.103V61.125H212.415V65.875H201.353V61.125H209.728C209.644 53.7917 209.603 48.1875 209.603 44.3125V36.6875C209.603 22.5208 211.998 13.0417 216.79 8.25C221.207 3.04167 228.498 0.4375 238.665 0.4375ZM227.728 31.3125H227.853L227.728 31.5625V39.6875H220.978V42.6875H227.728C227.603 55.5625 227.54 65.2917 227.54 71.875V75H242.54V70.0625H249.415V69.9375C249.415 63.8542 249.373 55.375 249.29 44.5C249.29 44.0417 249.332 42.875 249.415 41C249.415 29.2083 248.728 21.9792 247.353 19.3125C245.936 16.7292 243.332 15.4375 239.54 15.4375H237.29C232.79 15.4375 229.998 17.4167 228.915 21.375C228.415 23.375 228.019 26.6875 227.728 31.3125ZM267.415 39.6875H278.165V42.6875H267.415V39.6875ZM268.165 43.25H268.478C268.728 43.25 268.915 43.8542 269.04 45.0625C269.207 45.0625 269.457 44.4583 269.79 43.25H270.228C270.478 43.25 270.686 43.8958 270.853 45.1875H270.978L271.415 43.25H272.165V43.4375C271.707 45.6042 271.373 46.6875 271.165 46.6875H270.54C270.54 46.5208 270.394 45.875 270.103 44.75H269.978C269.811 46.0417 269.603 46.6875 269.353 46.6875H268.728C268.436 45.3958 268.144 44.3125 267.853 43.4375L268.165 43.25ZM268.478 47.75H269.04C269.29 47.75 269.603 48.4583 269.978 49.875H270.103C270.103 49.6667 270.29 48.9583 270.665 47.75H271.728V51.1875H270.978V49.4375H270.853C270.561 50.6042 270.311 51.1875 270.103 51.1875H269.665C269.373 50.2708 269.228 49.7292 269.228 49.5625H269.04C269.04 50.6458 268.936 51.1875 268.728 51.1875H268.165V48.0625C268.207 47.8542 268.311 47.75 268.478 47.75ZM267.978 52.25H268.603C269.103 52.5417 269.353 52.8958 269.353 53.3125C269.394 53.3125 269.686 52.9583 270.228 52.25H270.853V52.5625L269.978 53.875C269.978 53.9583 270.311 54.5208 270.978 55.5625V55.6875H270.228L269.353 54.625C269.019 55.3333 268.769 55.6875 268.603 55.6875H267.853C268.561 54.6458 268.915 54.0417 268.915 53.875C268.29 52.9583 267.978 52.4167 267.978 52.25ZM268.478 56.75H269.353C270.353 56.75 270.853 57.1042 270.853 57.8125V57.9375L270.54 58.375C270.707 58.375 270.853 58.5417 270.978 58.875V59.4375C270.769 59.9375 270.269 60.1875 269.478 60.1875H268.165V57.0625C268.207 56.8542 268.311 56.75 268.478 56.75ZM269.04 57.5V58.125H269.978V57.5H269.04ZM245.853 57.5H246.728V58.6875H247.79V57.8125C247.832 57.6042 247.936 57.5 248.103 57.5H248.665V60.8125H247.79V59.4375H246.728V60.8125H245.853V57.5ZM269.04 58.6875V59.4375H270.103V59C270.103 58.7917 269.998 58.6875 269.79 58.6875H269.04ZM268.478 61.25H270.415C270.582 61.2917 270.665 61.3958 270.665 61.5625V62H269.04V62.5625H270.54V63.3125H269.04V63.9375H270.665V64.6875H268.165V61.5625C268.207 61.3542 268.311 61.25 268.478 61.25ZM245.853 62H248.353V62.3125C248.353 62.6875 247.853 63.4375 246.853 64.5625C247.978 64.5625 248.54 64.6458 248.54 64.8125V65.3125H245.665V64.6875C246.415 63.8125 246.915 63.1667 247.165 62.75H245.853V62ZM230.103 66.3125C230.978 66.3125 231.478 66.9792 231.603 68.3125C231.603 69.2708 230.998 69.8125 229.79 69.9375C228.79 69.6875 228.29 69.1458 228.29 68.3125C228.29 66.9792 228.894 66.3125 230.103 66.3125ZM246.728 66.5H247.603C247.603 66.75 248.019 67.8333 248.853 69.75H248.103C247.894 69.75 247.79 69.5625 247.79 69.1875H246.728C246.519 69.1875 246.415 69.375 246.415 69.75H245.54V69.625C245.748 69.25 246.144 68.2083 246.728 66.5ZM229.228 67.6875V68.3125C229.228 68.8958 229.519 69.1875 230.103 69.1875C230.519 69.1042 230.728 68.8125 230.728 68.3125V67.6875C230.728 67.5208 230.519 67.3125 230.103 67.0625H229.79C229.665 67.0625 229.478 67.2708 229.228 67.6875ZM247.04 67.6875L246.853 68.4375H247.478C247.353 67.9375 247.207 67.6875 247.04 67.6875ZM229.79 70.8125C230.457 70.8125 230.957 71.125 231.29 71.75V72.1875H230.54C230.54 71.7708 230.248 71.5625 229.665 71.5625L229.228 72.1875V72.75C229.228 73.375 229.519 73.6875 230.103 73.6875C230.186 73.6875 230.436 73.4375 230.853 72.9375H231.478C231.478 73.7708 230.915 74.2708 229.79 74.4375C228.79 74.1458 228.29 73.5833 228.29 72.75C228.415 71.4583 228.915 70.8125 229.79 70.8125ZM285.25 0.625H315.875C326.125 0.625 332.75 4.22917 335.75 11.4375C337.042 15.1458 337.688 19.3958 337.688 24.1875V27.9375C337.688 36.6042 335.792 43.2083 332 47.75H325.5V51.0625H335.438V72.4375H329.562V75.75H338.438V88.375H319.812V68.1875H312.625V55.125H300.125V77.25H302.812V90H285.562C285.354 90 285.25 89.8958 285.25 89.6875V53.8125H292.938V51.25H285.25V0.625ZM302.812 15.1875V40.4375H307.062C313.438 40.4375 317.125 39.8333 318.125 38.625C319.167 37.9583 319.979 36.6042 320.562 34.5625H327.188V31.375H321.188V31.6875C320.854 33.6042 320.604 34.5625 320.438 34.5625H311.875V31.375H320.875C321.083 31.375 321.188 31.2917 321.188 31.125C321.271 28.5417 321.312 27.0833 321.312 26.75C321.312 21.1667 320.354 17.75 318.438 16.5C316.938 15.625 314.188 15.1875 310.188 15.1875H302.812ZM300.875 55.875H301.625C302.042 56.0833 302.25 56.3958 302.25 56.8125C302.417 56.8125 302.604 56.5 302.812 55.875H303.75V56.0625L302.812 57.375C302.812 57.4583 303.167 58.0208 303.875 59.0625V59.1875H303.125C303.042 59.1875 302.75 58.8333 302.25 58.125C301.958 58.7917 301.708 59.1458 301.5 59.1875H300.75C301.417 58.1458 301.75 57.5417 301.75 57.375L300.875 55.875ZM301 60.375H303.75V60.875L302.062 62.9375H303.75V63.6875H300.875V63.125L302.5 61H301V60.375ZM326.835 96.0625H397.335V100.625H381.585V104.5H326.835V96.0625ZM453.233 0.5625V53.4375C453.233 54.3125 453.191 55.5833 453.108 57.25H459.545V70H451.608V72.125H454.42V89.875C452.92 89.9583 451.816 90 451.108 90H438.795V72.6875H425.733V74.1875H406.483C406.274 74.1875 406.17 74.1042 406.17 73.9375V70.75H413.358V68.8125H406.17V62.8125C406.545 61.7292 410.649 52.9583 418.483 36.5H408.108V34.5H419.545C418.962 35.6667 418.67 36.3333 418.67 36.5H432.483C432.691 36.5 433.045 35.8333 433.545 34.5H419.545V34.375C419.545 34.2917 424.92 23.0208 435.67 0.5625H453.233ZM435.67 30.3125C435.67 30.6042 435.003 32 433.67 34.5H435.795V30.3125H435.67ZM435.92 34.5V36.5H441.045V34.5H435.92ZM421.795 59H438.67V57.25H435.795V36.5H432.92C432.712 36.5 430.92 40.1042 427.545 47.3125L421.795 59ZM496.88 0.375H507.818V37.5625H503.193V39.1875H507.818V62H503.818V63.625H510.38V90H499.63V88.8125H490.443V80.875H491.943V63.625H490.443V51.375H494.193V49.125H490.443V23C483.193 26.2083 479.109 27.8125 478.193 27.8125C475.693 20.6875 474.088 16.0417 473.38 13.875H473.505C480.797 11.4583 488.588 6.95833 496.88 0.375ZM507.818 37.5625H517.13V39.1875H507.818V37.5625ZM552.465 0.375C568.34 0.375 576.277 7.8125 576.277 22.6875V24C576.277 30.375 574.715 35.625 571.59 39.75V46.9375H575.402V75.75H571.152V77.9375H575.402V86.1875H566.277V90H529.84V64.3125H533.527V62.375H528.277L526.777 62.5V48.4375H528.84C530.632 45.4792 533.027 43.4583 536.027 42.375V42.25C531.194 39.7083 528.652 33.9792 528.402 25.0625C528.402 14.1875 531.298 7.08333 537.09 3.75C540.757 1.5 545.882 0.375 552.465 0.375ZM545.027 22.5625C545.027 29.7708 546.09 34.0833 548.215 35.5C549.423 36.2917 550.902 36.875 552.652 37.25C554.194 37 555.715 36.3542 557.215 35.3125C559.173 33.7708 560.152 30.2083 560.152 24.625V21.5C560.152 16.7083 557.944 14.3125 553.527 14.3125H552.34C547.465 14.3125 545.027 17.0625 545.027 22.5625ZM575.402 43.875H584.965V46.9375H575.402V43.875ZM544.402 49.125V56.0625H542.215V74.4375H551.152V72.375H560.152V49.125H544.402Z" fill="#EEE8DA"/>
</svg>
